# xmcd
#
# Track frame offsets:
#	150
#	34584
#	48766
#	69423
#	80878
#	103553
#	114435
#
# Disc length: 2020 seconds
#
# Revision: 0
# Processed by: cddbd v1.4PL0 Copyright (c) Steve Scherf et al.
# Submitted via: audiograbber 1.81.03
#
DISCID=5107e207
DTITLE=We and the Sea - Tamba 4
DYEAR=1900
DGENRE=Samba
TTITLE0=O Morro (The Hill)
TTITLE1=Moça Flor (Flower Girl)
TTITLE2=Iemanjá
TTITLE3=Nós E Ou Mar (We and the Sea)
TTITLE4=Canto de Ossanha (Chant of Ossanha)
TTITLE5=The Dolphin
TTITLE6=Consolação (Consolation)
EXTD=
EXTT0=
EXTT1=
EXTT2=
EXTT3=
EXTT4=
EXTT5=
EXTT6=
PLAYORDER=
